<svg xmlns="http://www.w3.org/2000/svg" width="225" height="225" viewBox="0 0 225 225" version="1.1">
	<path d="M -0 112.504 L -0 225.009 112.750 224.754 L 225.500 224.500 225.754 112.250 L 226.009 0 113.004 0 L 0 0 -0 112.504 M 0.483 113 C 0.483 174.875, 0.603 200.188, 0.750 169.250 C 0.897 138.313, 0.897 87.688, 0.750 56.750 C 0.603 25.813, 0.483 51.125, 0.483 113 M 137 51.644 C 137 51.998, 138.595 53.686, 140.544 55.394 C 146.556 60.663, 146.447 61.465, 134.568 99.507 C 128.730 118.203, 123.698 134.175, 123.387 135 C 123.075 135.825, 116.401 117.600, 108.555 94.500 L 94.290 52.500 73.625 52.230 L 52.959 51.959 56.758 55.758 C 60.221 59.221, 61.866 63.213, 75.412 101.028 C 83.582 123.838, 91.846 145.553, 93.776 149.285 C 98.860 159.117, 104.713 163.954, 117.641 169.009 C 123.447 171.279, 128.384 172.949, 128.613 172.720 C 128.842 172.492, 137.085 148.499, 146.932 119.402 C 156.779 90.306, 165.945 63.260, 167.301 59.300 C 168.658 55.340, 169.520 51.853, 169.217 51.550 C 168.438 50.771, 137 50.863, 137 51.644 M 136.335 167.569 C 135.401 170.002, 137.313 172.500, 140.109 172.500 C 142.099 172.500, 142.500 171.997, 142.500 169.500 C 142.500 166.969, 142.069 166.450, 139.744 166.183 C 137.868 165.967, 136.780 166.409, 136.335 167.569 M 137.079 169.583 C 137.127 170.748, 137.364 170.985, 137.683 170.188 C 137.972 169.466, 137.936 168.603, 137.604 168.271 C 137.272 167.939, 137.036 168.529, 137.079 169.583 M 141 169.892 C 141 170.566, 140.550 170.840, 140 170.500 C 139.450 170.160, 139 170.359, 139 170.941 C 139 171.523, 139.423 172, 139.941 172 C 141.176 172, 142.368 170.035, 141.600 169.267 C 141.270 168.937, 141 169.218, 141 169.892" stroke="none" fill="#a20a35" fill-rule="evenodd"/>
</svg>